# xmcd
#
# Track frame offsets:
#	150
#	32116
#	48465
#	63030
#	73340
#	87714
#	108236
#	124383
#	138283
#	160449
#	164797
#	172044
#	181739
#	186806
#	201623
#	217388
#	233047
#	249384
#	264847
#	277030
#
# Disc length: 4060 seconds
#
# Revision: 0
# Processed by: cddbd v1.5.2PL0 Copyright (c) Steve Scherf et al.
# Submitted via: EasyCDDAExtractor 15.3.0.1
#
DISCID=3d0fda14
DTITLE=Hank Williams - Lost Concerts
DYEAR=2012
DGENRE=Country
TTITLE0=Comedy With Hank and Drifting Cowboys
TTITLE1=I Can't Help It (If I'm Still In Love With You)
TTITLE2=Orange Blossom Special
TTITLE3=Why Don't You Love Me
TTITLE4=Are You Walking' And A-Talkin' For The Lord
TTITLE5=Funeral
TTITLE6=Hey Good Lookin'
TTITLE7=Cold Cold Heart
TTITLE8=Lovesick Blues
TTITLE9=Introduction At Sunset Park
TTITLE10=Hey Good Lookin' (Incomplete)
TTITLE11=Comedy (#2)
TTITLE12=Fire On The Mountain
TTITLE13=Lonesome Whistle
TTITLE14=Jambalaya
TTITLE15=Long Gone Lonesome Blues
TTITLE16=Half As Much
TTITLE17=I Saw The Light
TTITLE18=Lovesick Blues (#2)
TTITLE19=Interview Of 9-14-1951
EXTD=
EXTT0=
EXTT1=
EXTT2=
EXTT3=
EXTT4=
EXTT5=
EXTT6=
EXTT7=
EXTT8=
EXTT9=
EXTT10=
EXTT11=
EXTT12=
EXTT13=
EXTT14=
EXTT15=
EXTT16=
EXTT17=
EXTT18=
EXTT19=
PLAYORDER=
